<?xml version="1.0" encoding="utf-8"?>
<!-- Generator: Adobe Illustrator 16.0.2, SVG Export Plug-In . SVG Version: 6.00 Build 0)  -->
<!DOCTYPE svg PUBLIC "-//W3C//DTD SVG 1.1//EN" "http://www.w3.org/Graphics/SVG/1.1/DTD/svg11.dtd">
<svg version="1.1" id="Layer_1" xmlns="http://www.w3.org/2000/svg" xmlns:xlink="http://www.w3.org/1999/xlink" x="0px" y="0px"
	 width="15px" height="15px" viewBox="0 0 15 15" enable-background="new 0 0 15 15" xml:space="preserve">
<g id="Shape_3_2_">
	<g>
		<path fill="#FFFFFF" d="M13.184,3.64c-0.465-0.465-1.216-0.465-1.684,0L6.312,8.83L3.501,6.021c-0.466-0.464-1.217-0.464-1.684,0
			c-0.466,0.466-0.466,1.22,0,1.685l3.63,3.631c0.008,0.009,0.01,0.019,0.018,0.025c0.231,0.233,0.54,0.349,0.844,0.347
			c0.308,0.002,0.614-0.113,0.846-0.347c0.012-0.011,0.014-0.025,0.024-0.034l6.003-6.005C13.648,4.858,13.648,4.106,13.184,3.64z"
			/>
	</g>
</g>
</svg>
