<?xml version="1.0" encoding="utf-8"?>
<!-- Generator: Adobe Illustrator 16.0.3, SVG Export Plug-In . SVG Version: 6.00 Build 0)  -->
<!DOCTYPE svg PUBLIC "-//W3C//DTD SVG 1.1//EN" "http://www.w3.org/Graphics/SVG/1.1/DTD/svg11.dtd">
<svg version="1.1" id="Layer_1" xmlns="http://www.w3.org/2000/svg" xmlns:xlink="http://www.w3.org/1999/xlink" x="0px" y="0px"
	 width="24px" height="24px" viewBox="0 0 24 24" enable-background="new 0 0 24 24" xml:space="preserve">
<path fill-rule="evenodd" clip-rule="evenodd" fill="#FFFFFF" d="M23.065,23.316c-0.391,0.391-1.023,0.391-1.414,0l-4.969-4.971
	c-1.68,1.277-3.769,2.045-6.042,2.045c-5.523,0-10-4.477-10-10s4.477-10,10-10c5.524,0,10,4.477,10,10
	c0,2.529-0.945,4.832-2.494,6.591l4.918,4.92C23.456,22.291,23.456,22.926,23.065,23.316z M18.642,10.391c0-4.418-3.582-8-8-8
	s-8,3.582-8,8c0,4.417,3.582,8,8,8S18.642,14.809,18.642,10.391z"/>
</svg>
